<?xml version="1.0" encoding="UTF-8" standalone="no"?>
<!DOCTYPE svg PUBLIC "-//W3C//DTD SVG 1.1//EN" "http://www.w3.org/Graphics/SVG/1.1/DTD/svg11.dtd">
<svg width="100%" height="100%" viewBox="0 0 112 117" version="1.1" xmlns="http://www.w3.org/2000/svg" xmlns:xlink="http://www.w3.org/1999/xlink" xml:space="preserve" xmlns:serif="http://www.serif.com/" style="fill-rule:evenodd;clip-rule:evenodd;">
    <g id="Artboard1" transform="matrix(1,0,0,1,-340.212,-214.624)">
        <rect x="340.212" y="214.624" width="111.941" height="116.255" style="fill:none;"/>
        <g transform="matrix(1,0,0,1,0.212067,0.623815)">
            <g transform="matrix(-0.704286,-0.709917,-0.709917,0.704286,813.791,359.708)">
                <path d="M354.35,285.515C348.76,285.471 344.228,289.967 344.228,295.557C344.228,301.147 348.76,305.715 354.35,305.759C359.94,305.804 364.471,301.308 364.471,295.718C364.472,290.128 359.94,285.56 354.35,285.515Z" style="fill:rgb(59,176,233);fill-rule:nonzero;stroke:black;stroke-width:1.65px;"/>
            </g>
            <g transform="matrix(-0.704286,-0.709917,-0.709917,0.704286,891.63,392.132)">
                <path d="M400.022,285.515C394.432,285.471 389.901,289.967 389.901,295.557C389.901,301.147 394.432,305.715 400.022,305.759C405.612,305.804 410.144,301.308 410.144,295.718C410.144,290.128 405.612,285.56 400.022,285.515Z" style="fill:rgb(253,241,73);fill-rule:nonzero;stroke:black;stroke-width:1.65px;"/>
            </g>
            <g transform="matrix(-0.704288,-0.709914,-0.709914,0.704288,988.33,340.651)">
                <path d="M437.65,331.395C432.06,331.35 427.529,335.846 427.529,341.436C427.528,347.026 432.06,351.594 437.65,351.639C443.24,351.683 447.772,347.188 447.772,341.597C447.772,336.007 443.24,331.439 437.65,331.395Z" style="fill:rgb(255,173,0);fill-rule:nonzero;stroke:black;stroke-width:1.65px;"/>
            </g>
            <g transform="matrix(0,-0.412963,0.4125,0,367.435,272.831)">
                <path d="M-79,79L79,79" style="fill:none;fill-rule:nonzero;stroke:rgb(166,170,169);stroke-width:3px;"/>
            </g>
            <g transform="matrix(0.998879,0,0,1,0.392851,0)">
                <text x="350.395px" y="320.673px" style="font-family:'HelveticaNeue-Bold', 'Helvetica Neue';font-weight:700;font-size:11.563px;">A</text>
            </g>
            <g transform="matrix(0.998879,0,0,1,0.443695,0)">
                <text x="395.745px" y="320.673px" style="font-family:'HelveticaNeue-Bold', 'Helvetica Neue';font-weight:700;font-size:11.563px;">D</text>
            </g>
            <g transform="matrix(0.998879,0,0,1,0.486016,0)">
                <text x="433.492px" y="275.321px" style="font-family:'HelveticaNeue-Medium', 'Helvetica Neue', sans-serif;font-weight:500;font-size:13.215px;">E</text>
            </g>
            <g transform="matrix(0.261762,-0.319164,0.318806,0.262055,400.124,293.42)">
                <path d="M-16.579,35.063L74.157,35.063" style="fill:none;fill-rule:nonzero;stroke:rgb(200,37,6);stroke-width:6px;"/>
            </g>
            <g transform="matrix(0.278424,0.304704,-0.304362,0.278737,420.34,233.006)">
                <path d="M-13.344,30.293L68.766,30.293" style="fill:none;fill-rule:nonzero;stroke:rgb(200,37,6);stroke-width:6px;"/>
            </g>
            <g>
                <clipPath id="_clip1">
                    <rect x="410.895" y="286.458" width="14.995" height="15.012" clip-rule="nonzero"/>
                </clipPath>
                <g clip-path="url(#_clip1)">
                    <g transform="matrix(1,0,0,1,0,-24.0726)">
                        <rect x="412.132" y="311.769" width="12.52" height="12.534" style="fill:rgb(225,225,225);"/>
                    </g>
                    <g transform="matrix(0.4125,0,0,-0.412963,412.132,300.231)">
                        <rect x="0" y="0" width="30.352" height="30.352" style="fill:none;stroke:black;stroke-width:4px;"/>
                    </g>
                </g>
            </g>
            <g transform="matrix(-0.704286,-0.709917,-0.709917,0.704286,875.596,211.335)">
                <path d="M354.35,372.574C348.76,372.53 344.228,377.025 344.228,382.616C344.228,388.206 348.76,392.774 354.35,392.818C359.94,392.863 364.471,388.367 364.471,382.777C364.472,377.187 359.94,372.619 354.35,372.574Z" style="fill:rgb(248,121,119);fill-rule:nonzero;stroke:black;stroke-width:1.65px;"/>
            </g>
            <g transform="matrix(-0.704286,-0.709917,-0.709917,0.704286,953.435,243.759)">
                <path d="M400.022,372.574C394.432,372.53 389.901,377.025 389.901,382.616C389.901,388.206 394.432,392.774 400.022,392.818C405.612,392.863 410.144,388.367 410.144,382.777C410.144,377.187 405.612,372.619 400.022,372.574Z" style="fill:rgb(146,127,255);fill-rule:nonzero;stroke:black;stroke-width:1.65px;"/>
            </g>
            <g>
                <clipPath id="_clip2">
                    <rect x="410.895" y="240.961" width="14.995" height="15.012" clip-rule="nonzero"/>
                </clipPath>
                <g clip-path="url(#_clip2)">
                    <g transform="matrix(1,0,0,1,0,-115.066)">
                        <rect x="412.132" y="357.266" width="12.52" height="12.534" style="fill:rgb(225,225,225);"/>
                    </g>
                    <g transform="matrix(0.4125,0,0,-0.412963,412.132,254.734)">
                        <rect x="0" y="0" width="30.352" height="30.352" style="fill:none;stroke:black;stroke-width:4px;"/>
                    </g>
                </g>
            </g>
            <g>
                <clipPath id="_clip3">
                    <rect x="392.525" y="262.977" width="14.995" height="15.012" clip-rule="nonzero"/>
                </clipPath>
                <g clip-path="url(#_clip3)">
                    <g transform="matrix(1,0,0,1,0,-71.0336)">
                        <rect x="393.762" y="335.25" width="12.52" height="12.534" style="fill:rgb(225,225,225);"/>
                    </g>
                    <g transform="matrix(0.4125,0,0,-0.412963,393.762,276.75)">
                        <rect x="0" y="0" width="30.352" height="30.352" style="fill:none;stroke:black;stroke-width:4px;"/>
                    </g>
                </g>
            </g>
            <g transform="matrix(0.998879,0,0,1,0.466258,0)">
                <text x="415.869px" y="297.243px" style="font-family:'Helvetica-Bold', 'Helvetica';font-weight:700;font-size:9.085px;">5</text>
            </g>
            <g transform="matrix(0.998879,0,0,1,0.393447,0)">
                <text x="350.927px" y="233.516px" style="font-family:'HelveticaNeue-Bold', 'Helvetica Neue';font-weight:700;font-size:11.563px;">F</text>
            </g>
            <g transform="matrix(0.998879,0,0,1,0.446583,0)">
                <text x="398.32px" y="233.431px" style="font-family:'HelveticaNeue-Bold', 'Helvetica Neue';font-weight:700;font-size:11.563px;">I</text>
            </g>
            <g transform="matrix(0.998879,0,0,1,0.466258,0)">
                <text x="415.869px" y="251.746px" style="font-family:'Helvetica-Bold', 'Helvetica';font-weight:700;font-size:9.085px;">3</text>
            </g>
            <g transform="matrix(0.998879,0,0,1,0.445384,0)">
                <text x="397.251px" y="273.762px" style="font-family:'Helvetica-Bold', 'Helvetica';font-weight:700;font-size:9.085px;fill:rgb(112,191,65);">?</text>
            </g>
            <g transform="matrix(0.998879,0,0,1,0.416692,0)">
                <text x="371.66px" y="317.953px" style="font-family:'HelveticaNeue-Bold', 'Helvetica Neue';font-weight:700;font-size:12.389px;">…</text>
            </g>
            <g transform="matrix(0.998879,0,0,1,0.416692,0)">
                <text x="371.66px" y="230.105px" style="font-family:'HelveticaNeue-Bold', 'Helvetica Neue';font-weight:700;font-size:12.389px;">…</text>
            </g>
        </g>
    </g>
</svg>
